# Blender 4.0.2
# www.blender.org
mtllib bokals.mtl
o Cylinder
v 0.000000 -1.000000 -1.000000
v 0.000000 1.139259 -1.095539
v 0.195090 -1.000000 -0.980785
v 0.213729 1.139259 -1.074489
v 0.382683 -1.000000 -0.923880
v 0.419245 1.139259 -1.012146
v 0.555570 -1.000000 -0.831470
v 0.608649 1.139259 -0.910908
v 0.707107 -1.000000 -0.707107
v 0.774663 1.139259 -0.774663
v 0.831470 -1.000000 -0.555570
v 0.910908 1.139259 -0.608649
v 0.923880 -1.000000 -0.382683
v 1.012146 1.139259 -0.419245
v 0.980785 -1.000000 -0.195090
v 1.074489 1.139259 -0.213729
v 1.000000 -1.000000 0.000000
v 1.095539 1.139259 -0.000000
v 0.980785 -1.000000 0.195090
v 1.074489 1.139259 0.213729
v 0.923880 -1.000000 0.382683
v 1.012146 1.139259 0.419245
v 0.831470 -1.000000 0.555570
v 0.910908 1.139259 0.608649
v 0.707107 -1.000000 0.707107
v 0.774663 1.139259 0.774663
v 0.555570 -1.000000 0.831470
v 0.608649 1.139259 0.910908
v 0.382683 -1.000000 0.923880
v 0.419245 1.139259 1.012146
v 0.195090 -1.000000 0.980785
v 0.213729 1.139259 1.074489
v 0.000000 -1.000000 1.000000
v 0.000000 1.139259 1.095539
v -0.195090 -1.000000 0.980785
v -0.213729 1.139259 1.074489
v -0.382683 -1.000000 0.923880
v -0.419245 1.139259 1.012146
v -0.555570 -1.000000 0.831470
v -0.608649 1.139259 0.910908
v -0.707107 -1.000000 0.707107
v -0.774663 1.139259 0.774663
v -0.831470 -1.000000 0.555570
v -0.910908 1.139259 0.608649
v -0.923880 -1.000000 0.382683
v -1.012146 1.139259 0.419245
v -0.980785 -1.000000 0.195090
v -1.074489 1.139259 0.213729
v -1.000000 -1.000000 0.000000
v -1.095539 1.139259 -0.000000
v -0.980785 -1.000000 -0.195090
v -1.074489 1.139259 -0.213729
v -0.923880 -1.000000 -0.382683
v -1.012146 1.139259 -0.419245
v -0.831470 -1.000000 -0.555570
v -0.910908 1.139259 -0.608649
v -0.707107 -1.000000 -0.707107
v -0.774663 1.139259 -0.774663
v -0.555570 -1.000000 -0.831470
v -0.608649 1.139259 -0.910908
v -0.382683 -1.000000 -0.923880
v -0.419245 1.139259 -1.012146
v -0.195090 -1.000000 -0.980785
v -0.213729 1.139259 -1.074489
v 0.000000 -0.851328 -0.149235
v 0.029114 -0.851328 -0.146367
v 0.057110 -0.851328 -0.137875
v 0.082910 -0.851328 -0.124084
v 0.105525 -0.851328 -0.105525
v 0.124084 -0.851328 -0.082910
v 0.137875 -0.851328 -0.057110
v 0.146367 -0.851328 -0.029114
v 0.149235 -0.851328 -0.000000
v 0.146367 -0.851328 0.029114
v 0.137875 -0.851328 0.057110
v 0.124084 -0.851328 0.082910
v 0.105525 -0.851328 0.105525
v 0.082910 -0.851328 0.124084
v 0.057110 -0.851328 0.137875
v 0.029114 -0.851328 0.146367
v 0.000000 -0.851328 0.149235
v -0.029114 -0.851328 0.146367
v -0.057110 -0.851328 0.137875
v -0.082910 -0.851328 0.124084
v -0.105525 -0.851328 0.105525
v -0.124084 -0.851328 0.082910
v -0.137875 -0.851328 0.057110
v -0.146367 -0.851328 0.029114
v -0.149235 -0.851328 -0.000000
v -0.146367 -0.851328 -0.029114
v -0.137875 -0.851328 -0.057110
v -0.124084 -0.851328 -0.082910
v -0.105525 -0.851328 -0.105525
v -0.082910 -0.851328 -0.124084
v -0.057110 -0.851328 -0.137875
v -0.029114 -0.851328 -0.146367
v 0.000000 0.310510 -0.117214
v 0.022867 0.310510 -0.114962
v 0.044856 0.310510 -0.108292
v 0.065121 0.310510 -0.097460
v 0.082883 0.310510 -0.082883
v 0.097460 0.310510 -0.065121
v 0.108292 0.310510 -0.044856
v 0.114962 0.310510 -0.022867
v 0.117214 0.310510 -0.000000
v 0.114962 0.310510 0.022867
v 0.108292 0.310510 0.044856
v 0.097460 0.310510 0.065121
v 0.082883 0.310510 0.082883
v 0.065121 0.310510 0.097460
v 0.044856 0.310510 0.108292
v 0.022867 0.310510 0.114962
v 0.000000 0.310510 0.117214
v -0.022867 0.310510 0.114962
v -0.044856 0.310510 0.108292
v -0.065121 0.310510 0.097460
v -0.082883 0.310510 0.082883
v -0.097460 0.310510 0.065121
v -0.108292 0.310510 0.044856
v -0.114962 0.310510 0.022867
v -0.117214 0.310510 -0.000000
v -0.114962 0.310510 -0.022867
v -0.108292 0.310510 -0.044856
v -0.097460 0.310510 -0.065121
v -0.082883 0.310510 -0.082883
v -0.065121 0.310510 -0.097460
v -0.044856 0.310510 -0.108292
v -0.022867 0.310510 -0.114962
v 0.021379 -0.968862 -0.107477
v 0.000000 -0.968862 -0.109582
v 0.041935 -0.968862 -0.101241
v 0.060881 -0.968862 -0.091114
v 0.077486 -0.968862 -0.077486
v 0.091114 -0.968862 -0.060881
v 0.101241 -0.968862 -0.041935
v 0.107477 -0.968862 -0.021378
v 0.109582 -0.968862 -0.000000
v 0.107477 -0.968862 0.021378
v 0.101241 -0.968862 0.041935
v 0.091114 -0.968862 0.060881
v 0.077486 -0.968862 0.077486
v 0.060881 -0.968862 0.091114
v 0.041935 -0.968862 0.101241
v 0.021379 -0.968862 0.107477
v 0.000000 -0.968862 0.109582
v -0.021378 -0.968862 0.107477
v -0.041935 -0.968862 0.101241
v -0.060880 -0.968862 0.091114
v -0.077486 -0.968862 0.077486
v -0.091114 -0.968862 0.060881
v -0.101241 -0.968862 0.041935
v -0.107477 -0.968862 0.021378
v -0.109582 -0.968862 -0.000000
v -0.107477 -0.968862 -0.021378
v -0.101241 -0.968862 -0.041935
v -0.091114 -0.968862 -0.060881
v -0.077486 -0.968862 -0.077486
v -0.060880 -0.968862 -0.091114
v -0.041935 -0.968862 -0.101241
v -0.021378 -0.968862 -0.107477
vn 0.0635 -0.7615 -0.6451
vn 0.1882 -0.7615 -0.6203
vn 0.3056 -0.7615 -0.5716
vn 0.4112 -0.7615 -0.5011
vn 0.5011 -0.7615 -0.4112
vn 0.5716 -0.7615 -0.3056
vn 0.6203 -0.7615 -0.1882
vn 0.6451 -0.7615 -0.0635
vn 0.6451 -0.7615 0.0635
vn 0.6203 -0.7615 0.1882
vn 0.5716 -0.7615 0.3056
vn 0.5011 -0.7615 0.4112
vn 0.4112 -0.7615 0.5011
vn 0.3056 -0.7615 0.5716
vn 0.1882 -0.7615 0.6203
vn 0.0635 -0.7615 0.6451
vn -0.0635 -0.7615 0.6451
vn -0.1882 -0.7615 0.6203
vn -0.3056 -0.7615 0.5716
vn -0.4112 -0.7615 0.5011
vn -0.5011 -0.7615 0.4112
vn -0.5716 -0.7615 0.3056
vn -0.6203 -0.7615 0.1882
vn -0.6451 -0.7615 0.0635
vn -0.6451 -0.7615 -0.0635
vn -0.6203 -0.7615 -0.1882
vn -0.5716 -0.7615 -0.3056
vn -0.5011 -0.7615 -0.4112
vn -0.4112 -0.7615 -0.5011
vn -0.3056 -0.7615 -0.5716
vn -0.1882 -0.7615 -0.6203
vn -0.0635 -0.7615 -0.6451
vn -0.0000 -1.0000 -0.0000
vn -0.0170 0.9849 -0.1721
vn -0.0502 0.9849 -0.1655
vn -0.0815 0.9849 -0.1525
vn -0.1097 0.9849 -0.1337
vn -0.1337 0.9849 -0.1097
vn -0.1525 0.9849 -0.0815
vn -0.1655 0.9849 -0.0502
vn -0.1721 0.9849 -0.0170
vn -0.1721 0.9849 0.0170
vn -0.1655 0.9849 0.0502
vn -0.1525 0.9849 0.0815
vn -0.1337 0.9849 0.1097
vn -0.1097 0.9849 0.1337
vn -0.0815 0.9849 0.1525
vn -0.0502 0.9849 0.1655
vn -0.0170 0.9849 0.1721
vn 0.0170 0.9849 0.1721
vn 0.0502 0.9849 0.1655
vn 0.0815 0.9849 0.1525
vn 0.1097 0.9849 0.1337
vn 0.1337 0.9849 0.1097
vn 0.1525 0.9849 0.0815
vn 0.1655 0.9849 0.0502
vn 0.1721 0.9849 0.0170
vn 0.1721 0.9849 -0.0170
vn 0.1655 0.9849 -0.0502
vn 0.1525 0.9849 -0.0815
vn 0.1337 0.9849 -0.1097
vn 0.1097 0.9849 -0.1337
vn 0.0815 0.9849 -0.1525
vn 0.0502 0.9849 -0.1655
vn 0.0170 0.9849 -0.1721
vn -0.0980 0.0274 -0.9948
vn -0.2902 0.0274 -0.9566
vn -0.4712 0.0274 -0.8816
vn -0.6342 0.0274 -0.7727
vn -0.7727 0.0274 -0.6342
vn -0.8816 0.0274 -0.4712
vn -0.9566 0.0274 -0.2902
vn -0.9948 0.0274 -0.0980
vn -0.9948 0.0274 0.0980
vn -0.9566 0.0274 0.2902
vn -0.8816 0.0274 0.4712
vn -0.7727 0.0274 0.6342
vn -0.6342 0.0274 0.7727
vn -0.4712 0.0274 0.8816
vn -0.2902 0.0274 0.9566
vn -0.0980 0.0274 0.9948
vn 0.0980 0.0274 0.9948
vn 0.2902 0.0274 0.9566
vn 0.4712 0.0274 0.8816
vn 0.6342 0.0274 0.7727
vn 0.7727 0.0274 0.6342
vn 0.8816 0.0274 0.4712
vn 0.9566 0.0274 0.2902
vn 0.9948 0.0274 0.0980
vn 0.9948 0.0274 -0.0980
vn 0.9566 0.0274 -0.2902
vn 0.8816 0.0274 -0.4712
vn 0.7727 0.0274 -0.6342
vn 0.6342 0.0274 -0.7727
vn 0.4712 0.0274 -0.8816
vn 0.2902 0.0274 -0.9566
vn 0.0980 0.0274 -0.9948
vn -0.0000 1.0000 -0.0000
vt 1.000000 0.827628
vt 1.000000 1.000000
vt 0.968750 1.000000
vt 0.968750 0.827628
vt 0.937500 1.000000
vt 0.937500 0.827627
vt 0.906250 1.000000
vt 0.906250 0.827627
vt 0.875000 1.000000
vt 0.875000 0.827628
vt 0.843750 1.000000
vt 0.843750 0.827627
vt 0.812500 1.000000
vt 0.812500 0.827628
vt 0.781250 1.000000
vt 0.781250 0.827628
vt 0.750000 1.000000
vt 0.750000 0.827628
vt 0.718750 1.000000
vt 0.718750 0.827627
vt 0.687500 1.000000
vt 0.687500 0.827627
vt 0.656250 1.000000
vt 0.656250 0.827628
vt 0.625000 1.000000
vt 0.625000 0.827628
vt 0.593750 1.000000
vt 0.593750 0.827627
vt 0.562500 1.000000
vt 0.562500 0.827627
vt 0.531250 1.000000
vt 0.531250 0.827628
vt 0.500000 1.000000
vt 0.500000 0.827628
vt 0.468750 1.000000
vt 0.468750 0.827628
vt 0.437500 1.000000
vt 0.437500 0.827627
vt 0.406250 1.000000
vt 0.406250 0.827628
vt 0.375000 1.000000
vt 0.375000 0.827628
vt 0.343750 1.000000
vt 0.343750 0.827628
vt 0.312500 1.000000
vt 0.312500 0.827628
vt 0.281250 1.000000
vt 0.281250 0.827627
vt 0.250000 1.000000
vt 0.250000 0.827628
vt 0.218750 1.000000
vt 0.218750 0.827628
vt 0.187500 1.000000
vt 0.187500 0.827627
vt 0.156250 1.000000
vt 0.156250 0.827627
vt 0.125000 1.000000
vt 0.125000 0.827628
vt 0.093750 1.000000
vt 0.093750 0.827628
vt 0.062500 1.000000
vt 0.062500 0.827628
vt 0.031250 1.000000
vt 0.031250 0.827628
vt 0.000000 1.000000
vt 0.000000 0.827628
vt 0.750000 0.490000
vt 0.796822 0.485388
vt 0.841844 0.471731
vt 0.883337 0.449553
vt 0.919706 0.419706
vt 0.949553 0.383337
vt 0.971731 0.341844
vt 0.985388 0.296822
vt 0.990000 0.250000
vt 0.985388 0.203178
vt 0.971731 0.158156
vt 0.949553 0.116663
vt 0.919706 0.080294
vt 0.883337 0.050447
vt 0.841844 0.028269
vt 0.796822 0.014612
vt 0.750000 0.010000
vt 0.703178 0.014612
vt 0.658156 0.028269
vt 0.616663 0.050447
vt 0.580294 0.080294
vt 0.550447 0.116663
vt 0.528269 0.158156
vt 0.514612 0.203178
vt 0.510000 0.250000
vt 0.514612 0.296822
vt 0.528269 0.341844
vt 0.550447 0.383337
vt 0.580294 0.419706
vt 0.616663 0.449553
vt 0.658156 0.471731
vt 0.703178 0.485388
vt 0.031250 0.500000
vt 0.031250 0.586787
vt 0.000000 0.586787
vt 0.000000 0.500000
vt 0.062500 0.500000
vt 0.062500 0.586787
vt 0.093750 0.500000
vt 0.093750 0.586787
vt 0.125000 0.500000
vt 0.125000 0.586787
vt 0.156250 0.500000
vt 0.156250 0.586787
vt 0.187500 0.500000
vt 0.187500 0.586787
vt 0.218750 0.500000
vt 0.218750 0.586787
vt 0.250000 0.500000
vt 0.250000 0.586787
vt 0.281250 0.500000
vt 0.281250 0.586787
vt 0.312500 0.500000
vt 0.312500 0.586787
vt 0.343750 0.500000
vt 0.343750 0.586787
vt 0.375000 0.500000
vt 0.375000 0.586787
vt 0.406250 0.500000
vt 0.406250 0.586787
vt 0.437500 0.500000
vt 0.437500 0.586787
vt 0.468750 0.500000
vt 0.468750 0.586787
vt 0.500000 0.500000
vt 0.500000 0.586787
vt 0.531250 0.500000
vt 0.531250 0.586787
vt 0.562500 0.500000
vt 0.562500 0.586787
vt 0.593750 0.500000
vt 0.593750 0.586787
vt 0.625000 0.500000
vt 0.625000 0.586787
vt 0.656250 0.500000
vt 0.656250 0.586787
vt 0.687500 0.500000
vt 0.687500 0.586787
vt 0.718750 0.500000
vt 0.718750 0.586787
vt 0.750000 0.500000
vt 0.750000 0.586787
vt 0.781250 0.500000
vt 0.781250 0.586787
vt 0.812500 0.500000
vt 0.812500 0.586787
vt 0.843750 0.500000
vt 0.843750 0.586787
vt 0.875000 0.500000
vt 0.875000 0.586787
vt 0.906250 0.500000
vt 0.906250 0.586787
vt 0.937500 0.500000
vt 0.937500 0.586787
vt 0.968750 0.500000
vt 0.968750 0.586787
vt 1.000000 0.500000
vt 1.000000 0.586787
vt 0.296822 0.485388
vt 0.250000 0.490000
vt 0.203178 0.485388
vt 0.158156 0.471731
vt 0.116663 0.449553
vt 0.080294 0.419706
vt 0.050447 0.383337
vt 0.028269 0.341844
vt 0.014612 0.296822
vt 0.010000 0.250000
vt 0.014612 0.203178
vt 0.028269 0.158156
vt 0.050447 0.116663
vt 0.080294 0.080294
vt 0.116663 0.050447
vt 0.158156 0.028269
vt 0.203178 0.014612
vt 0.250000 0.010000
vt 0.296822 0.014612
vt 0.341844 0.028269
vt 0.383337 0.050447
vt 0.419706 0.080294
vt 0.449553 0.116663
vt 0.471731 0.158156
vt 0.485388 0.203178
vt 0.490000 0.250000
vt 0.485388 0.296822
vt 0.471731 0.341844
vt 0.449553 0.383337
vt 0.419706 0.419706
vt 0.383337 0.449553
vt 0.341844 0.471731
s 0
f 97/1/1 2/2/1 4/3/1 98/4/1
f 98/4/2 4/3/2 6/5/2 99/6/2
f 99/6/3 6/5/3 8/7/3 100/8/3
f 100/8/4 8/7/4 10/9/4 101/10/4
f 101/10/5 10/9/5 12/11/5 102/12/5
f 102/12/6 12/11/6 14/13/6 103/14/6
f 103/14/7 14/13/7 16/15/7 104/16/7
f 104/16/8 16/15/8 18/17/8 105/18/8
f 105/18/9 18/17/9 20/19/9 106/20/9
f 106/20/10 20/19/10 22/21/10 107/22/10
f 107/22/11 22/21/11 24/23/11 108/24/11
f 108/24/12 24/23/12 26/25/12 109/26/12
f 109/26/13 26/25/13 28/27/13 110/28/13
f 110/28/14 28/27/14 30/29/14 111/30/14
f 111/30/15 30/29/15 32/31/15 112/32/15
f 112/32/16 32/31/16 34/33/16 113/34/16
f 113/34/17 34/33/17 36/35/17 114/36/17
f 114/36/18 36/35/18 38/37/18 115/38/18
f 115/38/19 38/37/19 40/39/19 116/40/19
f 116/40/20 40/39/20 42/41/20 117/42/20
f 117/42/21 42/41/21 44/43/21 118/44/21
f 118/44/22 44/43/22 46/45/22 119/46/22
f 119/46/23 46/45/23 48/47/23 120/48/23
f 120/48/24 48/47/24 50/49/24 121/50/24
f 121/50/25 50/49/25 52/51/25 122/52/25
f 122/52/26 52/51/26 54/53/26 123/54/26
f 123/54/27 54/53/27 56/55/27 124/56/27
f 124/56/28 56/55/28 58/57/28 125/58/28
f 125/58/29 58/57/29 60/59/29 126/60/29
f 126/60/30 60/59/30 62/61/30 127/62/30
f 127/62/31 62/61/31 64/63/31 128/64/31
f 128/64/32 64/63/32 2/65/32 97/66/32
f 1/67/33 3/68/33 5/69/33 7/70/33 9/71/33 11/72/33 13/73/33 15/74/33 17/75/33 19/76/33 21/77/33 23/78/33 25/79/33 27/80/33 29/81/33 31/82/33 33/83/33 35/84/33 37/85/33 39/86/33 41/87/33 43/88/33 45/89/33 47/90/33 49/91/33 51/92/33 53/93/33 55/94/33 57/95/33 59/96/33 61/97/33 63/98/33
f 63/99/34 96/100/34 65/101/34 1/102/34
f 61/103/35 95/104/35 96/100/35 63/99/35
f 59/105/36 94/106/36 95/104/36 61/103/36
f 57/107/37 93/108/37 94/106/37 59/105/37
f 55/109/38 92/110/38 93/108/38 57/107/38
f 53/111/39 91/112/39 92/110/39 55/109/39
f 51/113/40 90/114/40 91/112/40 53/111/40
f 49/115/41 89/116/41 90/114/41 51/113/41
f 47/117/42 88/118/42 89/116/42 49/115/42
f 45/119/43 87/120/43 88/118/43 47/117/43
f 43/121/44 86/122/44 87/120/44 45/119/44
f 41/123/45 85/124/45 86/122/45 43/121/45
f 39/125/46 84/126/46 85/124/46 41/123/46
f 37/127/47 83/128/47 84/126/47 39/125/47
f 35/129/48 82/130/48 83/128/48 37/127/48
f 33/131/49 81/132/49 82/130/49 35/129/49
f 31/133/50 80/134/50 81/132/50 33/131/50
f 29/135/51 79/136/51 80/134/51 31/133/51
f 27/137/52 78/138/52 79/136/52 29/135/52
f 25/139/53 77/140/53 78/138/53 27/137/53
f 23/141/54 76/142/54 77/140/54 25/139/54
f 21/143/55 75/144/55 76/142/55 23/141/55
f 19/145/56 74/146/56 75/144/56 21/143/56
f 17/147/57 73/148/57 74/146/57 19/145/57
f 15/149/58 72/150/58 73/148/58 17/147/58
f 13/151/59 71/152/59 72/150/59 15/149/59
f 11/153/60 70/154/60 71/152/60 13/151/60
f 9/155/61 69/156/61 70/154/61 11/153/61
f 7/157/62 68/158/62 69/156/62 9/155/62
f 5/159/63 67/160/63 68/158/63 7/157/63
f 3/161/64 66/162/64 67/160/64 5/159/64
f 1/163/65 65/164/65 66/162/65 3/161/65
f 96/100/66 128/64/66 97/66/66 65/101/66
f 95/104/67 127/62/67 128/64/67 96/100/67
f 94/106/68 126/60/68 127/62/68 95/104/68
f 93/108/69 125/58/69 126/60/69 94/106/69
f 92/110/70 124/56/70 125/58/70 93/108/70
f 91/112/71 123/54/71 124/56/71 92/110/71
f 90/114/72 122/52/72 123/54/72 91/112/72
f 89/116/73 121/50/73 122/52/73 90/114/73
f 88/118/74 120/48/74 121/50/74 89/116/74
f 87/120/75 119/46/75 120/48/75 88/118/75
f 86/122/76 118/44/76 119/46/76 87/120/76
f 85/124/77 117/42/77 118/44/77 86/122/77
f 84/126/78 116/40/78 117/42/78 85/124/78
f 83/128/79 115/38/79 116/40/79 84/126/79
f 82/130/80 114/36/80 115/38/80 83/128/80
f 81/132/81 113/34/81 114/36/81 82/130/81
f 80/134/82 112/32/82 113/34/82 81/132/82
f 79/136/83 111/30/83 112/32/83 80/134/83
f 78/138/84 110/28/84 111/30/84 79/136/84
f 77/140/85 109/26/85 110/28/85 78/138/85
f 76/142/86 108/24/86 109/26/86 77/140/86
f 75/144/87 107/22/87 108/24/87 76/142/87
f 74/146/88 106/20/88 107/22/88 75/144/88
f 73/148/89 105/18/89 106/20/89 74/146/89
f 72/150/90 104/16/90 105/18/90 73/148/90
f 71/152/91 103/14/91 104/16/91 72/150/91
f 70/154/92 102/12/92 103/14/92 71/152/92
f 69/156/93 101/10/93 102/12/93 70/154/93
f 68/158/94 100/8/94 101/10/94 69/156/94
f 67/160/95 99/6/95 100/8/95 68/158/95
f 66/162/96 98/4/96 99/6/96 67/160/96
f 65/164/97 97/1/97 98/4/97 66/162/97
f 129/165/98 130/166/98 160/167/98 159/168/98 158/169/98 157/170/98 156/171/98 155/172/98 154/173/98 153/174/98 152/175/98 151/176/98 150/177/98 149/178/98 148/179/98 147/180/98 146/181/98 145/182/98 144/183/98 143/184/98 142/185/98 141/186/98 140/187/98 139/188/98 138/189/98 137/190/98 136/191/98 135/192/98 134/193/98 133/194/98 132/195/98 131/196/98
